{
  "source": "C:\\Users\\Peter\\Desktop\\stuff\\MIUN\\quantitative_research\\video_compression\\videos\\BVI-HD\\BVI-HD_CDVL_videos\\ORIG\\Bookcase_1920x1080_60fps.mp4",
  "output": "C:\\Users\\Peter\\Desktop\\stuff\\MIUN\\quantitative_research\\video_compression\\compressed_videos\\BVI-HD\\vp9\\3\\Bookcase_1920x1080_60fps_vp9.webm",
  "codec": "vp9",
  "ok": "Input #0, mov,mp4,m4a,3gp,3g2,mj2, from 'C:\\Users\\Peter\\Desktop\\stuff\\MIUN\\quantitative_research\\video_compression\\videos\\BVI-HD\\BVI-HD_CDVL_videos\\ORIG\\Bookcase_1920x1080_60fps.mp4':\n  Metadata:\n    major_brand     : isom\n    minor_version   : 512\n    compatible_brands: isomiso2avc1mp41\n    encoder         : Lavf54.28.101\n  Duration: 00:00:05.00, start: 0.000000, bitrate: 336321 kb/s\n  Stream #0:0[0x1](und): Video: h264 (High 4:4:4 Predictive) (avc1 / 0x31637661), yuv420p(progressive), 1920x1080, 336316 kb/s, 60 fps, 60 tbr, 60 tbn (default)\n    Metadata:\n      handler_name    : VideoHandler\n      vendor_id       : [0][0][0][0]\n[out#0/webm @ 000002b62ae11580] Codec AVOption b:a (set bitrate (in bits/s)) has not been used for any stream. The most likely reason is either wrong type (e.g. a video option with no video streams) or that it is a private option of some decoder which was not actually used for any stream.\nStream mapping:\n  Stream #0:0 -> #0:0 (h264 (native) -> vp9 (libvpx-vp9))\nPress [q] to stop, [?] for help\n[libvpx-vp9 @ 000002b62ca105c0] v1.15.2-100-g40561f514\nOutput #0, webm, to 'C:\\Users\\Peter\\Desktop\\stuff\\MIUN\\quantitative_research\\video_compression\\compressed_videos\\BVI-HD\\vp9\\3\\Bookcase_1920x1080_60fps_vp9.webm':\n  Metadata:\n    major_brand     : isom\n    minor_version   : 512\n    compatible_brands: isomiso2avc1mp41\n    encoder         : Lavf62.3.100\n  Stream #0:0(und): Video: vp9, yuv420p(tv, progressive), 1920x1080, q=2-31, 3000 kb/s, 60 fps, 1k tbn (default)\n    Metadata:\n      encoder         : Lavc62.11.100 libvpx-vp9\n      handler_name    : VideoHandler\n      vendor_id       : [0][0][0][0]\n    Side data:\n      cpb: bitrate max/min/avg: 0/0/0 buffer size: 3000000 vbv_delay: N/A\nframe=    0 fps=0.0 q=0.0 size=       0KiB time=N/A bitrate=N/A speed=N/A elapsed=0:00:00.50    \nframe=    8 fps=7.6 q=37.0 size=       1KiB time=00:00:00.13 bitrate=  38.0kbits/s speed=0.127x elapsed=0:00:01.04    \nframe=   14 fps=9.0 q=36.0 size=       1KiB time=00:00:00.23 bitrate=  21.7kbits/s speed=0.149x elapsed=0:00:01.56    \nframe=   21 fps= 10 q=35.0 size=       1KiB time=00:00:00.35 bitrate=  14.5kbits/s speed=0.168x elapsed=0:00:02.08    \nframe=   27 fps= 10 q=32.0 size=       1KiB time=00:00:00.45 bitrate=  11.3kbits/s speed=0.172x elapsed=0:00:02.61    \nframe=   34 fps= 11 q=36.0 size=       1KiB time=00:00:00.56 bitrate=   8.9kbits/s speed=0.182x elapsed=0:00:03.12    \nframe=   40 fps= 11 q=32.0 size=       1KiB time=00:00:00.66 bitrate=   7.6kbits/s speed=0.183x elapsed=0:00:03.64    \nframe=   47 fps= 11 q=34.0 size=       1KiB time=00:00:00.78 bitrate=   6.5kbits/s speed=0.188x elapsed=0:00:04.16    \nframe=   53 fps= 11 q=29.0 size=       1KiB time=00:00:00.88 bitrate=   5.7kbits/s speed=0.189x elapsed=0:00:04.68    \nframe=   60 fps= 12 q=34.0 size=       1KiB time=00:00:01.00 bitrate=   5.1kbits/s speed=0.192x elapsed=0:00:05.19    \nframe=   66 fps= 11 q=40.0 size=       1KiB time=00:00:01.10 bitrate=   4.6kbits/s speed=0.192x elapsed=0:00:05.74    \nframe=   73 fps= 12 q=25.0 size=       1KiB time=00:00:01.21 bitrate=   4.2kbits/s speed=0.194x elapsed=0:00:06.26    \nframe=   79 fps= 12 q=30.0 size=       1KiB time=00:00:01.31 bitrate=   3.8kbits/s speed=0.194x elapsed=0:00:06.79    \nframe=   85 fps= 12 q=26.0 size=       1KiB time=00:00:01.41 bitrate=   3.6kbits/s speed=0.194x elapsed=0:00:07.30    \nframe=   91 fps= 12 q=32.0 size=       1KiB time=00:00:01.51 bitrate=   3.3kbits/s speed=0.194x elapsed=0:00:07.82    \nframe=   97 fps= 12 q=24.0 size=       1KiB time=00:00:01.61 bitrate=   3.1kbits/s speed=0.193x elapsed=0:00:08.35    \nframe=  103 fps= 12 q=30.0 size=       1KiB time=00:00:01.71 bitrate=   2.9kbits/s speed=0.193x elapsed=0:00:08.90    \nframe=  108 fps= 11 q=32.0 size=       1KiB time=00:00:01.80 bitrate=   2.8kbits/s speed=0.19x elapsed=0:00:09.44    \nframe=  114 fps= 11 q=42.0 size=       1KiB time=00:00:01.90 bitrate=   2.7kbits/s speed=0.19x elapsed=0:00:09.98    \nframe=  120 fps= 11 q=30.0 size=       1KiB time=00:00:02.00 bitrate=   2.5kbits/s speed=0.19x elapsed=0:00:10.52    \nframe=  124 fps= 11 q=34.0 size=       1KiB time=00:00:02.06 bitrate=   2.5kbits/s speed=0.187x elapsed=0:00:11.04    \nframe=  129 fps= 11 q=23.0 size=       1KiB time=00:00:02.15 bitrate=   2.4kbits/s speed=0.186x elapsed=0:00:11.56    \nframe=  134 fps= 11 q=30.0 size=     768KiB time=00:00:02.23 bitrate=2817.1kbits/s speed=0.185x elapsed=0:00:12.09    \nframe=  139 fps= 11 q=35.0 size=     768KiB time=00:00:02.31 bitrate=2715.7kbits/s speed=0.183x elapsed=0:00:12.63    \nframe=  145 fps= 11 q=42.0 size=     768KiB time=00:00:02.41 bitrate=2603.4kbits/s speed=0.184x elapsed=0:00:13.15    \nframe=  151 fps= 11 q=42.0 size=     768KiB time=00:00:02.51 bitrate=2499.9kbits/s speed=0.184x elapsed=0:00:13.67    \nframe=  158 fps= 11 q=32.0 size=     768KiB time=00:00:02.63 bitrate=2389.2kbits/s speed=0.186x elapsed=0:00:14.18    \nframe=  164 fps= 11 q=26.0 size=     768KiB time=00:00:02.73 bitrate=2301.8kbits/s speed=0.186x elapsed=0:00:14.71    \nframe=  171 fps= 11 q=39.0 size=     768KiB time=00:00:02.85 bitrate=2207.5kbits/s speed=0.187x elapsed=0:00:15.23    \nframe=  177 fps= 11 q=42.0 size=     768KiB time=00:00:02.95 bitrate=2132.7kbits/s speed=0.187x elapsed=0:00:15.76    \nframe=  183 fps= 11 q=44.0 size=     768KiB time=00:00:03.05 bitrate=2062.8kbits/s speed=0.187x elapsed=0:00:16.28    \nframe=  189 fps= 11 q=44.0 size=     768KiB time=00:00:03.15 bitrate=1997.3kbits/s speed=0.187x elapsed=0:00:16.81    \nframe=  196 fps= 11 q=46.0 size=     768KiB time=00:00:03.26 bitrate=1926.0kbits/s speed=0.189x elapsed=0:00:17.32    \nframe=  202 fps= 11 q=39.0 size=     768KiB time=00:00:03.36 bitrate=1868.7kbits/s speed=0.189x elapsed=0:00:17.84    \nframe=  208 fps= 11 q=36.0 size=     768KiB time=00:00:03.46 bitrate=1814.8kbits/s speed=0.189x elapsed=0:00:18.36    \nframe=  214 fps= 11 q=35.0 size=     768KiB time=00:00:03.56 bitrate=1764.0kbits/s speed=0.189x elapsed=0:00:18.87    \nframe=  221 fps= 11 q=47.0 size=     768KiB time=00:00:03.68 bitrate=1708.1kbits/s speed=0.19x elapsed=0:00:19.40    \nframe=  227 fps= 11 q=34.0 size=     768KiB time=00:00:03.78 bitrate=1662.9kbits/s speed=0.19x elapsed=0:00:19.94    \nframe=  234 fps= 11 q=35.0 size=     768KiB time=00:00:03.90 bitrate=1613.2kbits/s speed=0.191x elapsed=0:00:20.46    \nframe=  240 fps= 11 q=33.0 size=     768KiB time=00:00:04.00 bitrate=1572.9kbits/s speed=0.191x elapsed=0:00:20.99    \nframe=  247 fps= 11 q=35.0 size=     768KiB time=00:00:04.11 bitrate=1528.3kbits/s speed=0.191x elapsed=0:00:21.51    \nframe=  255 fps= 12 q=40.0 size=     768KiB time=00:00:04.25 bitrate=1480.3kbits/s speed=0.193x elapsed=0:00:22.07    \nframe=  261 fps= 12 q=32.0 size=    1792KiB time=00:00:04.35 bitrate=3374.7kbits/s speed=0.192x elapsed=0:00:22.61    \nframe=  268 fps= 12 q=32.0 size=    1792KiB time=00:00:04.46 bitrate=3286.6kbits/s speed=0.193x elapsed=0:00:23.13    \nframe=  275 fps= 12 q=39.0 size=    1792KiB time=00:00:04.58 bitrate=3202.9kbits/s speed=0.194x elapsed=0:00:23.67    \nframe=  276 fps= 11 q=41.0 size=    1792KiB time=00:00:04.60 bitrate=3191.3kbits/s speed=0.19x elapsed=0:00:24.20    \nframe=  276 fps= 11 q=41.0 size=    1792KiB time=00:00:04.60 bitrate=3191.3kbits/s speed=0.186x elapsed=0:00:24.72    \nframe=  276 fps= 11 q=41.0 size=    1792KiB time=00:00:04.60 bitrate=3191.3kbits/s speed=0.182x elapsed=0:00:25.23    \n[out#0/webm @ 000002b62ae11580] video:2158KiB audio:0KiB subtitle:0KiB other streams:0KiB global headers:0KiB muxing overhead: 0.128964%\nframe=  300 fps= 12 q=44.0 Lsize=    2161KiB time=00:00:05.00 bitrate=3540.4kbits/s speed=0.195x elapsed=0:00:25.59    \n",
  "seconds": 25.827160120010376,
  "probe_out": {}
}